<mxfile host="app.diagrams.net" agent="Mozilla/5.0 (Windows NT 10.0; Win64; x64; rv:137.0) Gecko/20100101 Firefox/137.0" version="26.1.1">
  <diagram name="Page-1" id="rfZqFudsB1edDaWMl7fA">
    <mxGraphModel dx="1509" dy="1915" grid="1" gridSize="10" guides="1" tooltips="1" connect="1" arrows="1" fold="1" page="1" pageScale="1" pageWidth="850" pageHeight="1100" math="0" shadow="0">
      <root>
        <mxCell id="0" />
        <mxCell id="1" parent="0" />
        <mxCell id="lgfiBM5Fgl8fUFKCRiAk-3" value="&lt;div align=&quot;left&quot;&gt;&lt;font style=&quot;font-size: 20px;&quot;&gt;Atlas&lt;/font&gt;&lt;/div&gt;" style="ellipse;shape=cloud;whiteSpace=wrap;html=1;direction=west;align=left;" vertex="1" parent="1">
          <mxGeometry x="965" y="-20" width="340" height="330" as="geometry" />
        </mxCell>
        <mxCell id="gw4_A_uUTWsT_G3YQT5K-2" value="&lt;div align=&quot;left&quot;&gt;&lt;font style=&quot;font-size: 17px;&quot;&gt;Google Cloud&lt;/font&gt;&lt;/div&gt;" style="ellipse;shape=cloud;whiteSpace=wrap;html=1;direction=west;align=left;" parent="1" vertex="1">
          <mxGeometry x="300" y="-160" width="630" height="590" as="geometry" />
        </mxCell>
        <mxCell id="gw4_A_uUTWsT_G3YQT5K-5" value="&lt;font style=&quot;font-size: 14px;&quot;&gt;BD(Mongo)&lt;/font&gt;" style="rounded=0;whiteSpace=wrap;html=1;" parent="1" vertex="1">
          <mxGeometry x="1060" y="80" width="150" height="90" as="geometry" />
        </mxCell>
        <mxCell id="gw4_A_uUTWsT_G3YQT5K-7" value="Actor" style="shape=umlActor;verticalLabelPosition=bottom;verticalAlign=top;html=1;outlineConnect=0;" parent="1" vertex="1">
          <mxGeometry x="100" y="20" width="30" height="60" as="geometry" />
        </mxCell>
        <mxCell id="gw4_A_uUTWsT_G3YQT5K-8" value="Game" style="rounded=0;whiteSpace=wrap;html=1;" parent="1" vertex="1">
          <mxGeometry x="380" y="40" width="120" height="60" as="geometry" />
        </mxCell>
        <mxCell id="gw4_A_uUTWsT_G3YQT5K-9" value="" style="endArrow=classic;html=1;rounded=0;" parent="1" target="gw4_A_uUTWsT_G3YQT5K-8" edge="1">
          <mxGeometry width="50" height="50" relative="1" as="geometry">
            <mxPoint x="140" y="70" as="sourcePoint" />
            <mxPoint x="470" y="320" as="targetPoint" />
            <Array as="points" />
          </mxGeometry>
        </mxCell>
        <mxCell id="gw4_A_uUTWsT_G3YQT5K-19" value="&lt;font style=&quot;font-size: 14px;&quot;&gt;Rest&lt;/font&gt;" style="edgeLabel;html=1;align=center;verticalAlign=middle;resizable=0;points=[];" parent="gw4_A_uUTWsT_G3YQT5K-9" vertex="1" connectable="0">
          <mxGeometry x="0.1597" y="-2" relative="1" as="geometry">
            <mxPoint y="8" as="offset" />
          </mxGeometry>
        </mxCell>
        <mxCell id="gw4_A_uUTWsT_G3YQT5K-10" value="" style="endArrow=classic;html=1;rounded=0;exitX=0;exitY=0.25;exitDx=0;exitDy=0;" parent="1" source="gw4_A_uUTWsT_G3YQT5K-8" target="gw4_A_uUTWsT_G3YQT5K-7" edge="1">
          <mxGeometry width="50" height="50" relative="1" as="geometry">
            <mxPoint x="420" y="370" as="sourcePoint" />
            <mxPoint x="470" y="320" as="targetPoint" />
          </mxGeometry>
        </mxCell>
        <mxCell id="gw4_A_uUTWsT_G3YQT5K-13" value="" style="endArrow=classic;html=1;rounded=0;exitX=1.017;exitY=0.4;exitDx=0;exitDy=0;exitPerimeter=0;entryX=0;entryY=0.75;entryDx=0;entryDy=0;" parent="1" source="gw4_A_uUTWsT_G3YQT5K-8" edge="1">
          <mxGeometry width="50" height="50" relative="1" as="geometry">
            <mxPoint x="700" y="220" as="sourcePoint" />
            <mxPoint x="600" as="targetPoint" />
          </mxGeometry>
        </mxCell>
        <mxCell id="lgfiBM5Fgl8fUFKCRiAk-2" value="Grpc" style="edgeLabel;html=1;align=center;verticalAlign=middle;resizable=0;points=[];" vertex="1" connectable="0" parent="gw4_A_uUTWsT_G3YQT5K-13">
          <mxGeometry x="-0.0812" y="2" relative="1" as="geometry">
            <mxPoint x="-6" y="-13" as="offset" />
          </mxGeometry>
        </mxCell>
        <mxCell id="gw4_A_uUTWsT_G3YQT5K-14" value="" style="endArrow=classic;html=1;rounded=0;exitX=1.017;exitY=0.4;exitDx=0;exitDy=0;exitPerimeter=0;entryX=1.014;entryY=0.597;entryDx=0;entryDy=0;entryPerimeter=0;" parent="1" target="gw4_A_uUTWsT_G3YQT5K-8" edge="1">
          <mxGeometry width="50" height="50" relative="1" as="geometry">
            <mxPoint x="600" y="20" as="sourcePoint" />
            <mxPoint x="502" y="84" as="targetPoint" />
            <Array as="points" />
          </mxGeometry>
        </mxCell>
        <mxCell id="gw4_A_uUTWsT_G3YQT5K-26" value="&lt;font style=&quot;font-size: 24px;&quot;&gt;application architecture&lt;/font&gt;" style="text;html=1;align=center;verticalAlign=middle;whiteSpace=wrap;rounded=0;" parent="1" vertex="1">
          <mxGeometry x="100" y="-130" width="60" height="30" as="geometry" />
        </mxCell>
        <mxCell id="gw4_A_uUTWsT_G3YQT5K-29" value="Account" style="rounded=0;whiteSpace=wrap;html=1;" parent="1" vertex="1">
          <mxGeometry x="600" y="90" width="150" height="70" as="geometry" />
        </mxCell>
        <mxCell id="gw4_A_uUTWsT_G3YQT5K-31" value="Tournament " style="rounded=0;whiteSpace=wrap;html=1;" parent="1" vertex="1">
          <mxGeometry x="600" y="200" width="150" height="70" as="geometry" />
        </mxCell>
        <mxCell id="gw4_A_uUTWsT_G3YQT5K-32" value="Movie" style="rounded=0;whiteSpace=wrap;html=1;" parent="1" vertex="1">
          <mxGeometry x="600" y="-30" width="150" height="70" as="geometry" />
        </mxCell>
        <mxCell id="gw4_A_uUTWsT_G3YQT5K-39" value="" style="endArrow=classic;html=1;rounded=0;entryX=0;entryY=0.75;entryDx=0;entryDy=0;" parent="1" source="gw4_A_uUTWsT_G3YQT5K-8" edge="1">
          <mxGeometry width="50" height="50" relative="1" as="geometry">
            <mxPoint x="510" y="180" as="sourcePoint" />
            <mxPoint x="600" y="120" as="targetPoint" />
            <Array as="points">
              <mxPoint x="520" y="130" />
            </Array>
          </mxGeometry>
        </mxCell>
        <mxCell id="gw4_A_uUTWsT_G3YQT5K-41" value="" style="endArrow=classic;html=1;rounded=0;exitX=1.017;exitY=0.4;exitDx=0;exitDy=0;exitPerimeter=0;entryX=0.604;entryY=1.069;entryDx=0;entryDy=0;entryPerimeter=0;" parent="1" target="gw4_A_uUTWsT_G3YQT5K-8" edge="1">
          <mxGeometry width="50" height="50" relative="1" as="geometry">
            <mxPoint x="600" y="140" as="sourcePoint" />
            <mxPoint x="502" y="204" as="targetPoint" />
            <Array as="points">
              <mxPoint x="510" y="150" />
            </Array>
          </mxGeometry>
        </mxCell>
        <mxCell id="gw4_A_uUTWsT_G3YQT5K-43" value="" style="endArrow=classic;html=1;rounded=0;exitX=0.181;exitY=1;exitDx=0;exitDy=0;exitPerimeter=0;entryX=0;entryY=0.429;entryDx=0;entryDy=0;entryPerimeter=0;" parent="1" source="gw4_A_uUTWsT_G3YQT5K-8" target="gw4_A_uUTWsT_G3YQT5K-31" edge="1">
          <mxGeometry width="50" height="50" relative="1" as="geometry">
            <mxPoint x="425" y="204" as="sourcePoint" />
            <mxPoint x="523" y="140" as="targetPoint" />
          </mxGeometry>
        </mxCell>
        <mxCell id="gw4_A_uUTWsT_G3YQT5K-45" value="" style="endArrow=classic;html=1;rounded=0;exitX=0.006;exitY=0.619;exitDx=0;exitDy=0;exitPerimeter=0;entryX=0.056;entryY=0.944;entryDx=0;entryDy=0;entryPerimeter=0;" parent="1" source="gw4_A_uUTWsT_G3YQT5K-31" target="gw4_A_uUTWsT_G3YQT5K-8" edge="1">
          <mxGeometry width="50" height="50" relative="1" as="geometry">
            <mxPoint x="523" y="160" as="sourcePoint" />
            <mxPoint x="425" y="224" as="targetPoint" />
            <Array as="points">
              <mxPoint x="440" y="170" />
            </Array>
          </mxGeometry>
        </mxCell>
        <mxCell id="gw4_A_uUTWsT_G3YQT5K-47" value="&lt;font style=&quot;font-size: 150px;&quot;&gt;}&lt;/font&gt;" style="text;html=1;align=center;verticalAlign=middle;whiteSpace=wrap;rounded=0;" parent="1" vertex="1">
          <mxGeometry x="750" y="-70" width="90" height="340" as="geometry" />
        </mxCell>
        <mxCell id="gw4_A_uUTWsT_G3YQT5K-48" value="" style="endArrow=classic;html=1;rounded=0;exitX=1.007;exitY=0.552;exitDx=0;exitDy=0;exitPerimeter=0;entryX=-0.021;entryY=0.427;entryDx=0;entryDy=0;entryPerimeter=0;" parent="1" source="gw4_A_uUTWsT_G3YQT5K-47" target="gw4_A_uUTWsT_G3YQT5K-5" edge="1">
          <mxGeometry width="50" height="50" relative="1" as="geometry">
            <mxPoint x="760" y="80" as="sourcePoint" />
            <mxPoint x="1039" y="118" as="targetPoint" />
          </mxGeometry>
        </mxCell>
        <mxCell id="gw4_A_uUTWsT_G3YQT5K-49" style="edgeStyle=orthogonalEdgeStyle;rounded=0;orthogonalLoop=1;jettySize=auto;html=1;entryX=1.007;entryY=0.574;entryDx=0;entryDy=0;entryPerimeter=0;" parent="1" source="gw4_A_uUTWsT_G3YQT5K-5" target="gw4_A_uUTWsT_G3YQT5K-47" edge="1">
          <mxGeometry relative="1" as="geometry" />
        </mxCell>
        <mxCell id="gw4_A_uUTWsT_G3YQT5K-50" value="&lt;font style=&quot;font-size: 14px;&quot;&gt;Rest&lt;/font&gt;" style="edgeLabel;html=1;align=center;verticalAlign=middle;resizable=0;points=[];" parent="1" vertex="1" connectable="0">
          <mxGeometry x="879.9958569207289" y="99.99724467197383" as="geometry" />
        </mxCell>
      </root>
    </mxGraphModel>
  </diagram>
</mxfile>
